<svg width="69" height="48" viewBox="0 0 69 48" fill="none" xmlns="http://www.w3.org/2000/svg">
<g clip-path="url(#clip0_56_38)">
<path d="M43.6035 8.36279H25.4017V39.6318H43.6035V8.36279Z" fill="#FF5F00"/>
<path d="M27.2765 24.0001C27.2742 20.9892 27.9232 18.0171 29.1742 15.3089C30.4252 12.6007 32.2455 10.2273 34.4974 8.36833C31.7083 6.06291 28.3589 4.6293 24.8319 4.23136C21.3049 3.83342 17.7425 4.4872 14.5521 6.11798C11.3616 7.74876 8.67171 10.2908 6.7898 13.4534C4.9079 16.6161 3.90991 20.2718 3.90991 24.0029C3.90991 27.7339 4.9079 31.3896 6.7898 34.5523C8.67171 37.715 11.3616 40.257 14.5521 41.8877C17.7425 43.5185 21.3049 44.1723 24.8319 43.7744C28.3589 43.3764 31.7083 41.9428 34.4974 39.6374C32.2448 37.7778 30.4241 35.4035 29.173 32.6943C27.922 29.9851 27.2734 27.012 27.2765 24.0001Z" fill="#EB001B"/>
<path d="M63.2811 36.3231V35.6824H63.5437V35.5498H62.9187V35.6824H63.1656V36.3231H63.2811ZM64.4942 36.3231V35.5498H64.3051L64.0846 36.1022L63.864 35.5498H63.675V36.3231H63.8115V35.7376L64.0163 36.2403H64.1581L64.3629 35.7376V36.3231H64.4942Z" fill="#F79E1B"/>
<path d="M65.0876 24.0001C65.0875 27.7314 64.0893 31.3874 62.2071 34.5502C60.3248 37.7129 57.6345 40.2549 54.4437 41.8854C51.2528 43.516 47.6901 44.1693 44.1629 43.7708C40.6357 43.3723 37.2862 41.938 34.4974 39.6319C36.7483 37.7712 38.5681 35.3971 39.8195 32.6888C41.0708 29.9805 41.721 27.0086 41.721 23.9973C41.721 20.9861 41.0708 18.0142 39.8195 15.3059C38.5681 12.5975 36.7483 10.2235 34.4974 8.36282C37.2862 6.05667 40.6357 4.62237 44.1629 4.22386C47.6901 3.82534 51.2528 4.4787 54.4437 6.10925C57.6345 7.7398 60.3248 10.2817 62.2071 13.4445C64.0893 16.6073 65.0875 20.2633 65.0876 23.9946V24.0001Z" fill="#F79E1B"/>
</g>
<defs>
<clipPath id="clip0_56_38">
<rect width="69" height="48" fill="white"/>
</clipPath>
</defs>
</svg>
