<svg width="22" height="14" viewBox="0 0 22 14" fill="none" xmlns="http://www.w3.org/2000/svg">
<path d="M0.78125 2.52064H21.0938C21.5252 2.52064 21.875 2.26987 21.875 1.9605V0.560142C21.875 0.250768 21.5252 0 21.0938 0H0.78125C0.349756 0 0 0.250768 0 0.560142V1.9605C0 2.26987 0.349756 2.52064 0.78125 2.52064ZM0.78125 8.12205H21.0938C21.5252 8.12205 21.875 7.87128 21.875 7.56191V6.16156C21.875 5.85218 21.5252 5.60142 21.0938 5.60142H0.78125C0.349756 5.60142 0 5.85218 0 6.16156V7.56191C0 7.87128 0.349756 8.12205 0.78125 8.12205ZM0.78125 13.7235H21.0938C21.5252 13.7235 21.875 13.4727 21.875 13.1633V11.763C21.875 11.4536 21.5252 11.2028 21.0938 11.2028H0.78125C0.349756 11.2028 0 11.4536 0 11.763V13.1633C0 13.4727 0.349756 13.7235 0.78125 13.7235Z" fill="black"/>
</svg>
