<svg width="84" height="89" viewBox="0 0 84 89" fill="none" xmlns="http://www.w3.org/2000/svg">
<path d="M31.5754 55.7653L35.1679 33.4286H40.9142L37.319 55.7653H31.5754ZM58.0796 33.9101C56.9414 33.4575 55.1573 32.9719 52.9296 32.9719C47.2514 32.9719 43.2521 36.0015 43.2178 40.3434C43.1858 43.553 46.0733 45.3436 48.2529 46.4119C50.4897 47.5071 51.2415 48.2052 51.2308 49.1827C51.2164 50.6801 49.4446 51.3638 47.7928 51.3638C45.493 51.3638 44.2712 51.0252 42.3839 50.1916L41.6432 49.8366L40.837 54.8368C42.1791 55.4606 44.6609 56.0006 47.238 56.0286C53.2784 56.0286 57.1997 53.0337 57.2443 48.3969C57.2657 45.8558 55.7349 43.9223 52.4196 42.328C50.4111 41.2947 49.1811 40.6052 49.1941 39.5588C49.1941 38.6304 50.2353 37.6376 52.4852 37.6376C54.364 37.6067 55.7254 38.0408 56.786 38.4933L57.3008 38.7511L58.0796 33.9101ZM72.8668 33.4282H68.4266C67.0512 33.4282 66.0217 33.826 65.4177 35.2806L56.8836 55.7506H62.9178C62.9178 55.7506 63.9041 52.9983 64.1272 52.3939C64.7866 52.3939 70.6485 52.4035 71.4865 52.4035C71.6584 53.1855 72.1856 55.7506 72.1856 55.7506H77.5177L72.8668 33.4275V33.4282ZM65.8219 47.8519C66.2972 46.565 68.1114 41.6078 68.1114 41.6078C68.0776 41.6672 68.5832 40.3145 68.8732 39.4759L69.2616 41.4017C69.2616 41.4017 70.3619 46.7336 70.5919 47.8516H65.8219V47.8519ZM26.6973 33.4282L21.0715 48.6609L20.4722 45.5654C19.4248 41.997 16.1618 38.1308 12.514 36.1953L17.6581 55.7297L23.7379 55.7225L32.7845 33.428L26.6973 33.4279" fill="#0E4595"/>
<path d="M15.8221 33.4275H6.55617L6.48273 33.8922C13.6915 35.7411 18.4613 40.2093 20.4418 45.5786L18.427 35.3139C18.0792 33.8995 17.0704 33.4774 15.8223 33.4281" fill="#F2AE14"/>
</svg>
